<?xml version="1.0" encoding="UTF-8"?>
<svg version="1.1" xmlns="http://www.w3.org/2000/svg" width="256" height="283">
<path d="M0 0 C0.88602402 0.00222061 1.77204803 0.00444122 2.68492126 0.00672913 C3.68588333 0.00680466 4.6868454 0.00688019 5.71813965 0.00695801 C6.80666733 0.01211929 7.89519501 0.01728058 9.01670837 0.02259827 C10.67928932 0.02472069 10.67928932 0.02472069 12.37545776 0.02688599 C15.93168281 0.03250418 19.48784596 0.04505977 23.04405212 0.05775452 C25.44834809 0.06276717 27.85264504 0.06733048 30.25694275 0.07142639 C36.16516716 0.08247952 42.07335522 0.09923535 47.98155212 0.12025452 C48.31155212 1.44025452 48.64155212 2.76025452 48.98155212 4.12025452 C49.95092712 3.93462952 50.92030212 3.74900452 51.91905212 3.55775452 C53.43498962 3.34119202 53.43498962 3.34119202 54.98155212 3.12025452 C56.5841535 4.72285589 56.19053334 6.40524037 56.23155212 8.62025452 C56.17075713 13.98541251 54.87627349 18.15560486 52.98155212 23.12025452 C52.28606316 25.18007432 51.59890857 27.24272238 50.91905212 29.30775452 C50.27321879 31.24525452 49.62738546 33.18275452 48.98155212 35.12025452 C48.66057556 36.09478577 48.339599 37.06931702 48.00889587 38.07337952 C46.92256108 41.29520893 45.76907538 44.48766671 44.60655212 47.68275452 C40.94883094 57.90506622 37.89415496 68.26982794 35.00889587 78.73353577 C34.07187819 81.82248761 32.98432853 84.81486503 31.83140564 87.82850647 C30.08884821 92.52755462 28.55468012 97.29992945 26.98155212 102.05775452 C26.46721619 103.60752991 26.46721619 103.60752991 25.94248962 105.18861389 C25.26856225 107.21939886 24.59576276 109.25055852 23.92417908 111.28211975 C23.32950416 113.07261339 22.72976512 114.86144043 22.12290955 116.64784241 C20.6597581 120.96002562 19.36362519 125.25166611 18.29405212 129.68275452 C18.04268494 130.71529358 17.79131775 131.74783264 17.53233337 132.81166077 C17.35057556 133.5734967 17.16881775 134.33533264 16.98155212 135.12025452 C16.32155212 135.12025452 15.66155212 135.12025452 14.98155212 135.12025452 C15.31155212 136.44025452 15.64155212 137.76025452 15.98155212 139.12025452 C15.32155212 139.12025452 14.66155212 139.12025452 13.98155212 139.12025452 C14.04342712 139.78025452 14.10530212 140.44025452 14.16905212 141.12025452 C13.98155212 144.12025452 13.98155212 144.12025452 10.98155212 152.12025452 C30.12155212 152.12025452 49.26155212 152.12025452 68.98155212 152.12025452 C68.98155212 152.78025452 68.98155212 153.44025452 68.98155212 154.12025452 C69.90967712 154.38837952 70.83780212 154.65650452 71.79405212 154.93275452 C74.85255192 156.07219562 76.08308107 156.57352506 77.98155212 159.12025452 C78.05577087 161.38197327 78.05577087 161.38197327 77.66905212 163.80775452 C77.54916931 164.6159967 77.4292865 165.42423889 77.30577087 166.25697327 C77.19877869 166.87185608 77.0917865 167.48673889 76.98155212 168.12025452 C76.32155212 168.12025452 75.66155212 168.12025452 74.98155212 168.12025452 C75.31155212 169.44025452 75.64155212 170.76025452 75.98155212 172.12025452 C75.32155212 172.12025452 74.66155212 172.12025452 73.98155212 172.12025452 C74.31155212 173.11025452 74.64155212 174.10025452 74.98155212 175.12025452 C74.33689285 177.66062415 73.62446778 180.07894498 72.79405212 182.55775452 C72.56210144 183.26625549 72.33015076 183.97475647 72.09117126 184.70472717 C71.61725451 186.15039292 71.14028559 187.59506169 70.66026306 189.03871155 C70.04033939 190.93995947 69.46553831 192.85576859 68.89561462 194.77259827 C68.573349 195.83607483 68.25108337 196.89955139 67.91905212 197.99525452 C67.49946228 199.41451233 67.49946228 199.41451233 67.07139587 200.86244202 C65.6957939 203.71225542 64.92486093 204.02653434 61.98155212 205.12025452 C58.77378845 205.43612671 58.77378845 205.43612671 54.81358337 205.52772522 C54.0655394 205.54663252 53.31749542 205.56553982 52.54678345 205.58502007 C49.96265211 205.64574635 47.37853284 205.69031301 44.79405212 205.73353577 C43.86753845 205.75185266 42.94102478 205.77016956 41.98643494 205.78904152 C9.70240211 206.42279948 -22.59764366 206.30765401 -54.88644791 206.30536664 C-62.19511891 206.30571749 -69.50374285 206.3174177 -76.81239891 206.33130091 C-83.93940726 206.34434977 -91.06639448 206.3497429 -98.19341469 206.34910184 C-102.41717971 206.34884785 -106.64088641 206.35165002 -110.86463928 206.36227989 C-114.79842966 206.37192587 -118.73210494 206.37206452 -122.66589928 206.36476326 C-124.10588435 206.36371597 -125.54587657 206.36608883 -126.98584938 206.37212372 C-128.94827984 206.37981959 -130.91074948 206.37401036 -132.8731842 206.36749268 C-133.970121 206.36803744 -135.0670578 206.36858221 -136.19723511 206.36914349 C-139.01838945 206.12025967 -140.66757807 205.66873307 -143.01844788 204.12025452 C-144.44193306 200.94478757 -143.84350038 198.42046453 -143.01844788 195.12025452 C-142.35844788 195.12025452 -141.69844788 195.12025452 -141.01844788 195.12025452 C-140.97719788 194.21275452 -140.93594788 193.30525452 -140.89344788 192.37025452 C-140.0278449 186.42960944 -136.77437749 181.36541088 -134.01844788 176.12025452 C-132.6312461 173.3763166 -131.26268049 170.62319365 -129.89344788 167.87025452 C-129.24533244 166.57321853 -128.59690193 165.27633994 -127.94813538 163.97962952 C-126.99294006 162.06923889 -126.99294006 162.06923889 -126.01844788 160.12025452 C-124.69844788 157.48025452 -123.37844788 154.84025452 -122.01844788 152.12025452 C-99.24844788 151.79025452 -76.47844788 151.46025452 -53.01844788 151.12025452 C-46.86769047 136.38813557 -46.86769047 136.38813557 -44.01844788 121.12025452 C-43.35844788 121.12025452 -42.69844788 121.12025452 -42.01844788 121.12025452 C-41.91532288 120.02712952 -41.81219788 118.93400452 -41.70594788 117.80775452 C-41.04949128 112.43060268 -39.53485587 107.30846804 -38.01844788 102.12025452 C-37.35844788 102.12025452 -36.69844788 102.12025452 -36.01844788 102.12025452 C-35.55438538 100.48056702 -35.55438538 100.48056702 -35.08094788 98.80775452 C-33.95630937 94.90459734 -32.65285494 91.23224113 -31.08094788 87.49525452 C-29.17347062 82.75066307 -27.9983087 78.12306135 -27.01844788 73.12025452 C-25.47608734 65.30718575 -23.07423473 57.90696784 -20.51844788 50.37025452 C-20.11497131 49.16498108 -19.71149475 47.95970764 -19.29579163 46.71791077 C-16.30782972 37.83291513 -16.30782972 37.83291513 -14.9188385 34.4122467 C-13.92153307 32.09046147 -13.92153307 32.09046147 -13.51844788 29.37025452 C-13.35344788 28.62775452 -13.18844788 27.88525452 -13.01844788 27.12025452 C-12.02844788 26.62525452 -12.02844788 26.62525452 -11.01844788 26.12025452 C-9.99771024 23.62857768 -9.99771024 23.62857768 -9.10829163 20.58900452 C-8.58332092 18.90871155 -8.58332092 18.90871155 -8.04774475 17.19447327 C-7.5073053 15.42523499 -7.5073053 15.42523499 -6.95594788 13.62025452 C-6.23851322 11.29652812 -5.51859673 8.97356602 -4.79579163 6.65150452 C-4.47860168 5.6157428 -4.16141174 4.57998108 -3.83460999 3.51283264 C-2.69099378 0.16032327 -2.69099378 0.16032327 0 0 Z M-2.01844788 2.12025452 C-2.01844788 2.45025452 -2.01844788 2.78025452 -2.01844788 3.12025452 C3.26155212 3.12025452 8.54155212 3.12025452 13.98155212 3.12025452 C13.98155212 2.79025452 13.98155212 2.46025452 13.98155212 2.12025452 C8.70155212 2.12025452 3.42155212 2.12025452 -2.01844788 2.12025452 Z M-18.01844788 47.12025452 C-17.01844788 49.12025452 -17.01844788 49.12025452 -17.01844788 49.12025452 Z M-19.01844788 50.12025452 C-18.01844788 52.12025452 -18.01844788 52.12025452 -18.01844788 52.12025452 Z M-20.01844788 53.12025452 C-19.01844788 55.12025452 -19.01844788 55.12025452 -19.01844788 55.12025452 Z M-21.01844788 56.12025452 C-20.01844788 58.12025452 -20.01844788 58.12025452 -20.01844788 58.12025452 Z M-22.01844788 59.12025452 C-21.01844788 61.12025452 -21.01844788 61.12025452 -21.01844788 61.12025452 Z M-23.01844788 62.12025452 C-22.01844788 64.12025452 -22.01844788 64.12025452 -22.01844788 64.12025452 Z M-24.01844788 65.12025452 C-23.01844788 67.12025452 -23.01844788 67.12025452 -23.01844788 67.12025452 Z M-25.01844788 68.12025452 C-24.01844788 70.12025452 -24.01844788 70.12025452 -24.01844788 70.12025452 Z M-26.01844788 71.12025452 C-25.01844788 73.12025452 -25.01844788 73.12025452 -25.01844788 73.12025452 Z M-38.01844788 109.12025452 C-37.01844788 111.12025452 -37.01844788 111.12025452 -37.01844788 111.12025452 Z M-39.01844788 112.12025452 C-38.01844788 114.12025452 -38.01844788 114.12025452 -38.01844788 114.12025452 Z M-40.01844788 115.12025452 C-39.01844788 117.12025452 -39.01844788 117.12025452 -39.01844788 117.12025452 Z M-41.01844788 118.12025452 C-40.01844788 120.12025452 -40.01844788 120.12025452 -40.01844788 120.12025452 Z M-42.01844788 121.12025452 C-41.01844788 123.12025452 -41.01844788 123.12025452 -41.01844788 123.12025452 Z M-43.01844788 124.12025452 C-42.01844788 126.12025452 -42.01844788 126.12025452 -42.01844788 126.12025452 Z M-44.01844788 127.12025452 C-43.01844788 129.12025452 -43.01844788 129.12025452 -43.01844788 129.12025452 Z M-45.01844788 130.12025452 C-44.01844788 132.12025452 -44.01844788 132.12025452 -44.01844788 132.12025452 Z M-46.01844788 133.12025452 C-45.01844788 135.12025452 -45.01844788 135.12025452 -45.01844788 135.12025452 Z M-47.01844788 136.12025452 C-46.01844788 138.12025452 -46.01844788 138.12025452 -46.01844788 138.12025452 Z M-48.01844788 139.12025452 C-47.01844788 141.12025452 -47.01844788 141.12025452 -47.01844788 141.12025452 Z M-49.01844788 142.12025452 C-48.01844788 144.12025452 -48.01844788 144.12025452 -48.01844788 144.12025452 Z M-50.01844788 145.12025452 C-49.01844788 147.12025452 -49.01844788 147.12025452 -49.01844788 147.12025452 Z M-51.01844788 148.12025452 C-50.01844788 150.12025452 -50.01844788 150.12025452 -50.01844788 150.12025452 Z M-122.01844788 153.12025452 C-122.01844788 153.45025452 -122.01844788 153.78025452 -122.01844788 154.12025452 C-98.91844788 154.12025452 -75.81844788 154.12025452 -52.01844788 154.12025452 C-52.01844788 153.79025452 -52.01844788 153.46025452 -52.01844788 153.12025452 C-75.11844788 153.12025452 -98.21844788 153.12025452 -122.01844788 153.12025452 Z M-137.01844788 184.12025452 C-136.01844788 186.12025452 -136.01844788 186.12025452 -136.01844788 186.12025452 Z M-139.01844788 189.12025452 C-138.01844788 191.12025452 -138.01844788 191.12025452 -138.01844788 191.12025452 Z " fill="#EAEAEA" transform="translate(169.01844787597656,69.87974548339844)"/>
<path d="M0 0 C25.95591785 0.08388011 51.91177339 0.17900624 77.86760044 0.28752708 C89.91928907 0.33765266 101.9709709 0.38409565 114.02270508 0.421875 C124.52677023 0.45481211 135.0307826 0.49465293 145.5347895 0.54279006 C151.09675902 0.56803785 156.65869361 0.5898243 162.22070503 0.60334396 C167.45651787 0.61617979 172.69221079 0.63825085 177.92795753 0.66738319 C179.84878492 0.67644702 181.76963162 0.68214642 183.69047928 0.68421364 C186.31560364 0.68754458 188.94038975 0.70304462 191.56544495 0.7215271 C192.32324472 0.71959237 193.08104448 0.71765763 193.86180788 0.71566427 C198.63481344 0.76580783 202.51428523 1.51736305 207 3 C209.12510065 10.22534222 204.91344536 16.48810416 201.8125 22.875 C198.44192683 29.88215425 195.21603332 36.92824023 192.20825195 44.09912109 C191.03722028 46.848126 190.13493317 48.86506683 188 51 C183.4202027 51.88209167 178.9853177 52.1227432 174.33032227 52.11352539 C173.04952286 52.11344986 171.76872345 52.11337433 170.44911194 52.11329651 C169.07154297 52.10819145 167.69397441 52.10297548 166.31640625 52.09765625 C164.8915156 52.0957886 163.46662431 52.09436634 162.04173279 52.09336853 C158.3115966 52.08957066 154.58150004 52.07976402 150.85137939 52.06866455 C147.03699275 52.05839141 143.22259964 52.05385832 139.40820312 52.04882812 C131.93878412 52.03813902 124.46939764 52.0210958 117 52 C116.81099121 52.78018997 116.62198242 53.56037994 116.42724609 54.36421204 C115.01204083 60.12848394 113.52511651 65.79532953 111.625 71.41796875 C111.41439941 72.04552567 111.20379883 72.67308258 110.98681641 73.31965637 C110.32886559 75.27709359 109.6646378 77.23232465 109 79.1875 C108.5568616 80.5018082 108.11415153 81.8162609 107.671875 83.13085938 C106.82316647 85.65163795 105.9718789 88.17149411 105.11914062 90.69091797 C103.73294597 94.78962704 102.36475091 98.89411587 101 103 C100.28140428 105.15630142 99.56263944 107.31254648 98.84375 109.46875 C98.46089844 110.61730469 98.07804687 111.76585938 97.68359375 112.94921875 C96.5078125 116.4765625 95.33203125 120.00390625 94.15625 123.53125 C93.78580566 124.64540283 93.41536133 125.75955566 93.03369141 126.9074707 C92.40753922 128.78075124 91.77595138 130.65224307 91.13427734 132.52026367 C89.09501307 138.47904319 87.53526105 144.50799345 86.0703125 150.63085938 C84.92788796 155.16673574 83.48034642 159.37096054 81.625 163.66796875 C78.37319516 171.23919998 76.11734579 179.07102096 73.796875 186.96728516 C73.23342625 188.87606297 72.6598148 190.7818316 72.0859375 192.6875 C71.5916626 194.36392578 71.5916626 194.36392578 71.08740234 196.07421875 C70.00652708 198.98243814 69.24072534 200.85773362 67 203 C61.67459517 204.56183687 55.85819673 204.16169588 50.34375 204.16796875 C49.32325562 204.17129715 48.30276123 204.17462555 47.25134277 204.17805481 C45.09969532 204.18310384 42.94804009 204.18546376 40.79638672 204.18530273 C37.51126208 204.18749249 34.2264717 204.20567882 30.94140625 204.22460938 C28.84635531 204.22754309 26.75130278 204.22952803 24.65625 204.23046875 C23.18883362 204.24124702 23.18883362 204.24124702 21.69177246 204.25224304 C16.75964891 204.23576992 12.5774052 204.07925777 8 202 C6.5 200.125 6.5 200.125 6 198 C6.8125 195.9375 6.8125 195.9375 8 194 C9.09819416 190.91214206 9.09819416 190.91214206 9.75 187.25 C10.7968213 182.46233202 12.30989374 177.88223882 13.89038086 173.24682617 C15.77657738 167.70952655 17.55858658 162.14303857 19.3125 156.5625 C19.57901367 155.71510254 19.84552734 154.86770508 20.12011719 153.99462891 C20.74773382 151.99672969 21.3740174 149.99841179 22 148 C22.66 148 23.32 148 24 148 C24.65780202 146.19180934 25.30055208 144.37814157 25.9375 142.5625 C26.29714844 141.55316406 26.65679687 140.54382813 27.02734375 139.50390625 C27.79736772 136.72996449 28.18797231 134.50703449 28.42578125 131.68359375 C28.91142351 126.62770144 30.46770098 122.2308691 32.25 117.5 C35.55342216 108.42990531 38.3885772 99.29040738 41 90 C41.66 90 42.32 90 43 90 C46.91657702 79.30458571 46.91657702 79.30458571 48.76171875 68.125 C49.39753975 62.45472747 51.42127454 57.0506398 54 52 C53.23436234 52.00444122 52.46872467 52.00888245 51.67988586 52.01345825 C44.45582408 52.05357314 37.2318165 52.08400377 30.00767231 52.10362434 C26.2938848 52.11405065 22.58018952 52.12818869 18.86645508 52.15087891 C15.28085107 52.17264856 11.69533565 52.1845773 8.10967064 52.18975449 C6.74336541 52.19344285 5.3770649 52.20064534 4.0107975 52.21146011 C2.09359105 52.22602896 0.176295 52.22681738 -1.7409668 52.22705078 C-2.83128708 52.231492 -3.92160736 52.23593323 -5.04496765 52.24050903 C-8.33265338 51.97292546 -11.5821402 51.4178598 -14 49 C-13.91902095 41.98418881 -12.21333245 35.41556186 -10.1875 28.75 C-9.64424297 26.91675207 -9.1012752 25.0834184 -8.55859375 23.25 C-8.29288574 22.36183594 -8.02717773 21.47367188 -7.75341797 20.55859375 C-7.06867145 18.233207 -6.41691524 15.90274569 -5.78515625 13.5625 C-5.44355469 12.304375 -5.10195313 11.04625 -4.75 9.75 C-4.45609375 8.65171875 -4.1621875 7.5534375 -3.859375 6.421875 C-3 4 -3 4 -1 3 C-0.67 2.01 -0.34 1.02 0 0 Z M-7 24 C-6 26 -6 26 -6 26 Z M-8 27 C-7 29 -7 29 -7 29 Z M-9 30 C-8 33 -8 33 -8 33 Z M-10 34 C-9 36 -9 36 -9 36 Z M-11 37 C-10 39 -10 39 -10 39 Z M-12 40 C-11 43 -11 43 -11 43 Z M53 58 C54 60 54 60 54 60 Z M52 61 C53 63 53 63 53 63 Z M51 64 C52 66 52 66 52 66 Z M50 67 C51 69 51 69 51 69 Z M49 70 C50 72 50 72 50 72 Z M41 93 C42 95 42 95 42 95 Z M40 96 C41 98 41 98 41 98 Z M39 99 C40 101 40 101 40 101 Z M33 119 C34 121 34 121 34 121 Z M32 122 C33 124 33 124 33 124 Z M31 125 C32 127 32 127 32 127 Z M30 128 C31 130 31 130 31 130 Z M29 131 C30 133 30 133 30 133 Z M22 151 C23 153 23 153 23 153 Z M21 154 C22 156 22 156 22 156 Z M20 157 C21 159 21 159 21 159 Z M19 160 C20 162 20 162 20 162 Z M13 180 C14 182 14 182 14 182 Z M12 183 C13 185 13 185 13 185 Z M11 186 C12 188 12 188 12 188 Z M10 189 C11 191 11 191 11 191 Z " fill="#EAEAEA" transform="translate(39,12)"/>
<path d="M0 0 C3.15728506 -0.40305767 5.15230863 -0.49220789 7.9375 1.125 C9.6175096 4.08972282 8.89263255 5.72701399 8 9 C5.67986602 15.92085421 2.39441091 22.39510422 -0.93359375 28.87304688 C-2.61471518 32.15746004 -4.21597526 35.42824792 -5.60546875 38.84765625 C-6.08628906 40.01167969 -6.56710938 41.17570312 -7.0625 42.375 C-7.66771484 43.93347656 -7.66771484 43.93347656 -8.28515625 45.5234375 C-10.69830975 49.00849289 -12.92290068 49.0816511 -17 50 C-20.30943298 50.24050903 -20.30943298 50.24050903 -23.76147461 50.22705078 C-25.06229477 50.22689972 -26.36311493 50.22674866 -27.70335388 50.22659302 C-29.10301877 50.21638281 -30.50268205 50.20595087 -31.90234375 50.1953125 C-33.34965315 50.19157733 -34.79696511 50.18873274 -36.24427795 50.18673706 C-40.03365187 50.17914024 -43.82286985 50.15952625 -47.61218262 50.1373291 C-51.48687634 50.11678503 -55.36159551 50.10771712 -59.23632812 50.09765625 C-66.82428945 50.07627617 -74.41212279 50.04218862 -82 50 C-82.28351318 51.17028496 -82.28351318 51.17028496 -82.57275391 52.36421204 C-83.98795917 58.12848394 -85.47488349 63.79532953 -87.375 69.41796875 C-87.58560059 70.04552567 -87.79620117 70.67308258 -88.01318359 71.31965637 C-88.67113441 73.27709359 -89.3353622 75.23232465 -90 77.1875 C-90.4431384 78.5018082 -90.88584847 79.8162609 -91.328125 81.13085938 C-92.17683353 83.65163795 -93.0281211 86.17149411 -93.88085938 88.69091797 C-95.26705403 92.78962704 -96.63524909 96.89411587 -98 101 C-98.71859572 103.15630142 -99.43736056 105.31254648 -100.15625 107.46875 C-100.53910156 108.61730469 -100.92195313 109.76585938 -101.31640625 110.94921875 C-102.4921875 114.4765625 -103.66796875 118.00390625 -104.84375 121.53125 C-105.21419434 122.64540283 -105.58463867 123.75955566 -105.96630859 124.9074707 C-106.59246078 126.78075124 -107.22404862 128.65224307 -107.86572266 130.52026367 C-109.90498693 136.47904319 -111.46473895 142.50799345 -112.9296875 148.63085938 C-114.07211204 153.16673574 -115.51965358 157.37096054 -117.375 161.66796875 C-120.62680484 169.23919998 -122.88265421 177.07102096 -125.203125 184.96728516 C-125.76657375 186.87606297 -126.3401852 188.7818316 -126.9140625 190.6875 C-127.4083374 192.36392578 -127.4083374 192.36392578 -127.91259766 194.07421875 C-128.99347292 196.98243814 -129.75927466 198.85773362 -132 201 C-137.32540483 202.56183687 -143.14180327 202.16169588 -148.65625 202.16796875 C-149.67674438 202.17129715 -150.69723877 202.17462555 -151.74865723 202.17805481 C-153.90030468 202.18310384 -156.05195991 202.18546376 -158.20361328 202.18530273 C-161.48873792 202.18749249 -164.7735283 202.20567882 -168.05859375 202.22460938 C-170.15364469 202.22754309 -172.24869722 202.22952803 -174.34375 202.23046875 C-175.32202759 202.23765427 -176.30030518 202.24483978 -177.30822754 202.25224304 C-182.24035109 202.23576992 -186.4225948 202.07925777 -191 200 C-192.5 198.125 -192.5 198.125 -193 196 C-192.125 193.75 -192.125 193.75 -191 192 C-191 192.66 -191 193.32 -191 194 C-173.84 194 -156.68 194 -139 194 C-138.505 191.03 -138.505 191.03 -138 188 C-137.34166446 185.87492663 -136.63514402 183.76440237 -135.890625 181.66796875 C-135.46523437 180.45560547 -135.03984375 179.24324219 -134.6015625 177.99414062 C-134.15156869 176.72507342 -133.70104749 175.45619309 -133.25 174.1875 C-130.48016127 166.37970608 -127.83053383 158.5913079 -125.54296875 150.62890625 C-122.81955142 141.16055734 -119.58369092 131.89188468 -116.30493164 122.60400391 C-113.30408808 114.08304223 -110.53554748 105.55230251 -108.11328125 96.84765625 C-104.89463656 85.30444565 -101.04156483 74.00967298 -97.125 62.6875 C-94.77375 55.860625 -92.4225 49.03375 -90 42 C-66.24 42 -42.48 42 -18 42 C-17.01 39.03 -16.02 36.06 -15 33 C-14.12240855 30.98254838 -13.20798018 28.9805433 -12.25 27 C-9.39736412 20.96667512 -6.83638443 14.8453145 -4.36035156 8.6484375 C-3.10394205 5.5342849 -1.86986186 2.80479279 0 0 Z " fill="#0E0E0E" transform="translate(238,14)"/>
<path d="M0 0 C3.12856427 -0.34761825 4.65130928 -0.21104964 7.375 1.4375 C9.82482552 5.30068639 8.85344539 8.65856041 8 13 C7.34 13 6.68 13 6 13 C6.33 14.32 6.66 15.64 7 17 C6.34 17 5.68 17 5 17 C5.33 17.99 5.66 18.98 6 20 C5.35534073 22.54036963 4.64291566 24.95869047 3.8125 27.4375 C3.58054932 28.14600098 3.34859863 28.85450195 3.10961914 29.58447266 C2.63570238 31.0301384 2.15873347 32.47480718 1.67871094 33.91845703 C1.05878727 35.81970495 0.48398619 37.73551408 -0.0859375 39.65234375 C-0.40820312 40.71582031 -0.73046875 41.77929688 -1.0625 42.875 C-1.34222656 43.82117188 -1.62195313 44.76734375 -1.91015625 45.7421875 C-3.28575822 48.59200091 -4.0566912 48.90627982 -7 50 C-10.20776367 50.31587219 -10.20776367 50.31587219 -14.16796875 50.4074707 C-14.91601273 50.426378 -15.6640567 50.4452853 -16.43476868 50.46476555 C-19.01890002 50.52549183 -21.60301929 50.57005849 -24.1875 50.61328125 C-25.57727051 50.6407566 -25.57727051 50.6407566 -26.99511719 50.668787 C-59.27915001 51.30254496 -91.57919578 51.18739949 -123.86800003 51.18511212 C-131.17667103 51.18546297 -138.48529497 51.19716319 -145.79395103 51.2110464 C-152.92095939 51.22409526 -160.0479466 51.22948838 -167.17496681 51.22884732 C-171.39873183 51.22859334 -175.62243853 51.2313955 -179.84619141 51.24202538 C-183.77998179 51.25167135 -187.71365707 51.25181 -191.6474514 51.24450874 C-193.08743648 51.24346146 -194.52742869 51.24583431 -195.9674015 51.2518692 C-197.92983196 51.25956507 -199.8923016 51.25375585 -201.85473633 51.24723816 C-202.95167313 51.24778293 -204.04860992 51.24832769 -205.17878723 51.24888897 C-207.99994157 51.00000515 -209.6491302 50.54847856 -212 49 C-213.42348518 45.82453305 -212.8250525 43.30021001 -212 40 C-211.67 40.99 -211.34 41.98 -211 43 C-112.495 42.505 -112.495 42.505 -12 42 C-7.35534849 25.01576628 -7.35534849 25.01576628 -2.859375 7.99609375 C-2.06773905 5.23616297 -1.12123808 2.64081074 0 0 Z " fill="#0F0F0F" transform="translate(238,225)"/>
<path d="M0 0 C0.39893943 7.07748097 -0.489042 12.42065435 -3 19 C-3.69548896 21.0598198 -4.38264355 23.12246787 -5.0625 25.1875 C-5.70833333 27.125 -6.35416667 29.0625 -7 31 C-7.48146484 32.46179688 -7.48146484 32.46179688 -7.97265625 33.953125 C-9.05899104 37.17495441 -10.21247674 40.3674122 -11.375 43.5625 C-15.03272119 53.78481171 -18.08739717 64.14957342 -20.97265625 74.61328125 C-21.90967394 77.70223309 -22.99722359 80.69461051 -24.15014648 83.70825195 C-25.89270392 88.40730011 -27.42687201 93.17967493 -29 97.9375 C-29.34289062 98.97068359 -29.68578125 100.00386719 -30.0390625 101.06835938 C-30.71298987 103.09914434 -31.38578937 105.130304 -32.05737305 107.16186523 C-32.65204797 108.95235887 -33.251787 110.74118591 -33.85864258 112.52758789 C-35.32179402 116.8397711 -36.61792694 121.13141159 -37.6875 125.5625 C-38.06455078 127.11130859 -38.06455078 127.11130859 -38.44921875 128.69140625 C-38.63097656 129.45324219 -38.81273437 130.21507812 -39 131 C-39.66 131 -40.32 131 -41 131 C-40.505 132.98 -40.505 132.98 -40 135 C-40.66 135 -41.32 135 -42 135 C-41.938125 135.66 -41.87625 136.32 -41.8125 137 C-42 140 -42 140 -45 148 C-25.86 148 -6.72 148 13 148 C13 148.33 13 148.66 13 149 C11.85701195 149.0154612 11.85701195 149.0154612 10.69093323 149.03123474 C3.5244026 149.1290441 -3.64203827 149.2315344 -10.80842495 149.33933926 C-14.4931019 149.39460165 -18.17778673 149.44802679 -21.86254883 149.49731445 C-25.41577841 149.54490932 -28.96890875 149.59725007 -32.52202034 149.65294075 C-33.88042811 149.6733865 -35.23886312 149.69209585 -36.59731865 149.70907402 C-38.49389705 149.73306877 -40.39038799 149.76370332 -42.28686523 149.79467773 C-43.36830307 149.81022202 -44.44974091 149.8257663 -45.56394958 149.84178162 C-47.94751051 149.72758019 -47.94751051 149.72758019 -49 151 C-51.67058851 151.14115161 -54.32432238 151.04247107 -57 151 C-52.71276207 134.86186047 -47.75170385 119.05349749 -42.22949219 103.30224609 C-39.22932777 94.72680791 -36.40061856 86.14435091 -33.88755798 77.41307068 C-31.5145783 69.21801635 -28.78773694 61.14577079 -26.0625 53.0625 C-25.5576511 51.55804053 -25.05309357 50.05348326 -24.54882812 48.54882812 C-23.54386813 45.55139999 -22.53781637 42.55434221 -21.53076172 39.55761719 C-19.93810403 34.81674835 -18.34764757 30.07515561 -16.76171875 25.33203125 C-16.51784927 24.60516617 -16.2739798 23.87830109 -16.02272034 23.12940979 C-14.19284779 17.65066512 -12.49164653 12.14269479 -10.859375 6.6015625 C-10.0717962 4.21734666 -9.34550585 2.12063421 -8 0 C-2.81081081 -1.40540541 -2.81081081 -1.40540541 0 0 Z " fill="#161616" transform="translate(225,74)"/>
<path d="M0 0 C3.15728506 -0.40305767 5.15230863 -0.49220789 7.9375 1.125 C9.6175096 4.08972282 8.89263255 5.72701399 8 9 C5.67986602 15.92085421 2.39441091 22.39510422 -0.93359375 28.87304688 C-2.61471518 32.15746004 -4.21597526 35.42824792 -5.60546875 38.84765625 C-6.32669922 40.59369141 -6.32669922 40.59369141 -7.0625 42.375 C-7.66771484 43.93347656 -7.66771484 43.93347656 -8.28515625 45.5234375 C-10.69915901 49.00971939 -12.9204293 49.08222041 -17 50 C-20.37744141 50.24291992 -20.37744141 50.24291992 -23.8515625 50.23046875 C-25.11484375 50.22853516 -26.378125 50.22660156 -27.6796875 50.22460938 C-28.98164063 50.21236328 -30.28359375 50.20011719 -31.625 50.1875 C-32.9346875 50.18685547 -34.244375 50.18621094 -35.59375 50.18554688 C-46.14926964 50.13697853 -46.14926964 50.13697853 -51 49 C-50.67 48.01 -50.34 47.02 -50 46 C-53.63 45.67 -57.26 45.34 -61 45 C-61 44.67 -61 44.34 -61 44 C-70.57 43.67 -80.14 43.34 -90 43 C-90 42.67 -90 42.34 -90 42 C-66.24 42 -42.48 42 -18 42 C-17.01 39.03 -16.02 36.06 -15 33 C-14.12240855 30.98254838 -13.20798018 28.9805433 -12.25 27 C-9.39736412 20.96667512 -6.83638443 14.8453145 -4.36035156 8.6484375 C-3.10394205 5.5342849 -1.86986186 2.80479279 0 0 Z " fill="#141414" transform="translate(238,14)"/>
<path d="M0 0 C0.99 0.66 1.98 1.32 3 2 C2.34 2 1.68 2 1 2 C1.33 3.32 1.66 4.64 2 6 C1.34 6 0.68 6 0 6 C0.33 7.65 0.66 9.3 1 11 C0.01 11.33 -0.98 11.66 -2 12 C-1.67 12.99 -1.34 13.98 -1 15 C22.1 15.33 45.2 15.66 69 16 C66 27 66 27 65 30 C63.515 29.505 63.515 29.505 62 29 C62.99 26.525 62.99 26.525 64 24 C63.23436234 24.00444122 62.46872467 24.00888245 61.67988586 24.01345825 C54.45582408 24.05357314 47.2318165 24.08400377 40.00767231 24.10362434 C36.2938848 24.11405065 32.58018952 24.12818869 28.86645508 24.15087891 C25.28085107 24.17264856 21.69533565 24.1845773 18.10967064 24.18975449 C16.74336541 24.19344285 15.3770649 24.20064534 14.0107975 24.21146011 C12.09359105 24.22602896 10.176295 24.22681738 8.2590332 24.22705078 C7.16871292 24.231492 6.07839264 24.23593323 4.95503235 24.24050903 C1.66734662 23.97292546 -1.5821402 23.4178598 -4 21 C-3.94030423 13.74696451 -2.08416236 6.89477611 0 0 Z M-1 9 C0 11 0 11 0 11 Z " fill="#212121" transform="translate(29,40)"/>
<path d="M0 0 C66 0.33 132 0.66 200 1 C199.01 2.98 198.02 4.96 197 7 C195.97895449 6.02149805 194.9793879 5.02019573 194 4 C194 3.67 194 3.34 194 3 C129.98 3 65.96 3 0 3 C0 2.01 0 1.02 0 0 Z " fill="#E0E0E0" transform="translate(39,12)"/>
<path d="M0 0 C0.33 0.99 0.66 1.98 1 3 C97.03 3.495 97.03 3.495 195 4 C195 3.34 195 2.68 195 2 C195.99 1.67 196.98 1.34 198 1 C197.67 2.32 197.34 3.64 197 5 C131.66 5 66.32 5 -1 5 C-0.67 3.35 -0.34 1.7 0 0 Z " fill="#C1C1C1" transform="translate(29,263)"/>
<path d="M0 0 C65.34 0 130.68 0 198 0 C198 0.33 198 0.66 198 1 C132.66 1 67.32 1 0 1 C0 0.67 0 0.34 0 0 Z " fill="#C9C9C9" transform="translate(40,11)"/>
<path d="M0 0 C0.66 0.33 1.32 0.66 2 1 C1.58974437 7.01708264 -0.48520362 11.84515708 -2.94140625 17.328125 C-4.1841711 19.98585498 -4.1841711 19.98585498 -4 23 C-4.66 23 -5.32 23 -6 23 C-6 24.98 -6 26.96 -6 29 C-6.66 29 -7.32 29 -8 29 C-7.67 29.99 -7.34 30.98 -7 32 C-7.66 32 -8.32 32 -9 32 C-8.67 32.99 -8.34 33.98 -8 35 C-8.66 35 -9.32 35 -10 35 C-9.38665254 29.32085687 -7.92570087 24.26353777 -6.0625 18.875 C-5.79759766 18.08996094 -5.53269531 17.30492188 -5.25976562 16.49609375 C-4.18711324 13.33935497 -3.08682172 10.21690713 -1.84765625 7.12109375 C-0.90902725 4.77235852 -0.42657584 2.48835904 0 0 Z " fill="#636363" transform="translate(156,97)"/>
<path d="M0 0 C5.28 0.33 10.56 0.66 16 1 C15.67 1.66 15.34 2.32 15 3 C12.9375 3.625 12.9375 3.625 11 4 C11.33 4.99 11.66 5.98 12 7 C10.35 6.67 8.7 6.34 7 6 C6.67 5.01 6.34 4.02 6 3 C5.01 3.99 4.02 4.98 3 6 C2.01 5.67 1.02 5.34 0 5 C0 3.35 0 1.7 0 0 Z " fill="#050505" transform="translate(25,56)"/>
<path d="M0 0 C0.66 0.66 1.32 1.32 2 2 C1.828125 4.1015625 1.828125 4.1015625 1.25 6.625 C1.05148438 7.511875 0.85296875 8.39875 0.6484375 9.3125 C0.43445312 10.199375 0.22046875 11.08625 0 12 C-0.19335938 12.804375 -0.38671875 13.60875 -0.5859375 14.4375 C-1.04369581 16.29506995 -1.51987399 18.14808537 -2 20 C-3.32 20.33 -4.64 20.66 -6 21 C-5.47599609 19.22882812 -5.47599609 19.22882812 -4.94140625 17.421875 C-4.48172754 15.86459611 -4.02209452 14.30730374 -3.5625 12.75 C-3.21735352 11.58404297 -3.21735352 11.58404297 -2.86523438 10.39453125 C-2.64287109 9.64042969 -2.42050781 8.88632812 -2.19140625 8.109375 C-1.98717041 7.41811523 -1.78293457 6.72685547 -1.57250977 6.01464844 C-1.00535746 4.01885279 -0.49201996 2.01550346 0 0 Z " fill="#252525" transform="translate(36,16)"/>
<path d="M0 0 C0 0.66 0 1.32 0 2 C-7.26 2 -14.52 2 -22 2 C-22.33 1.34 -22.66 0.68 -23 0 C-15.16737959 -1.00220537 -7.8413948 -0.8895125 0 0 Z " fill="#2F2F2F" transform="translate(138,274)"/>
<path d="M0 0 C4.95 0 9.9 0 15 0 C14.67 0.66 14.34 1.32 14 2 C11.03 2 8.06 2 5 2 C5 2.66 5 3.32 5 4 C1.125 2.25 1.125 2.25 0 0 Z " fill="#E1E1E1" transform="translate(91,224)"/>
<path d="M0 0 C1.18414294 3.55242882 0.69535532 4.69830562 -0.4375 8.1875 C-0.72496094 9.08855469 -1.01242188 9.98960937 -1.30859375 10.91796875 C-1.53675781 11.60503906 -1.76492187 12.29210937 -2 13 C-2.66 13 -3.32 13 -4 13 C-3.67 13.99 -3.34 14.98 -3 16 C-3.66 16 -4.32 16 -5 16 C-4.67 12.7 -4.34 9.4 -4 6 C-3.34 6 -2.68 6 -2 6 C-1.34 4.02 -0.68 2.04 0 0 Z " fill="#4A4A4A" transform="translate(135,166)"/>
<path d="M0 0 C0.66 0.33 1.32 0.66 2 1 C0.84941444 6.39795989 -0.42421759 11.70987333 -2 17 C-2.66 17 -3.32 17 -4 17 C-3.21450457 11.18733381 -1.59317541 5.63122376 0 0 Z " fill="#454545" transform="translate(56,175)"/>
<path d="M0 0 C0.33 0.66 0.66 1.32 1 2 C1.99 2.33 2.98 2.66 4 3 C3.690625 3.598125 3.38125 4.19625 3.0625 4.8125 C1.89790296 7.08956772 1.89790296 7.08956772 1 10 C0.01 9.67 -0.98 9.34 -2 9 C-1.34 6.03 -0.68 3.06 0 0 Z M0 3 C1 5 1 5 1 5 Z M-1 6 C0 8 0 8 0 8 Z " fill="#BABABA" transform="translate(59,166)"/>
<path d="M0 0 C0.66 0 1.32 0 2 0 C2 0.66 2 1.32 2 2 C2.721875 1.814375 3.44375 1.62875 4.1875 1.4375 C7.12826973 0.98004693 9.14103058 1.26483643 12 2 C11.67 2.66 11.34 3.32 11 4 C7.37 4 3.74 4 0 4 C0 2.68 0 1.36 0 0 Z " fill="#3C3C3C" transform="translate(187,272)"/>
<path d="M0 0 C0.66 0 1.32 0 2 0 C4 2 4 2 5 4 C5.99 4.33 6.98 4.66 8 5 C4.7 4.67 1.4 4.34 -2 4 C-1.34 2.68 -0.68 1.36 0 0 Z " fill="#313131" transform="translate(29,59)"/>
<path d="M0 0 C-1 1 -1 1 -3.50390625 1.09765625 C-5.01791016 1.08025391 -5.01791016 1.08025391 -6.5625 1.0625 C-7.57441406 1.05347656 -8.58632813 1.04445313 -9.62890625 1.03515625 C-10.41136719 1.02355469 -11.19382812 1.01195312 -12 1 C-12 0.34 -12 -0.32 -12 -1 C-3.42857143 -2.42857143 -3.42857143 -2.42857143 0 0 Z " fill="#262626" transform="translate(42,275)"/>
<path d="M0 0 C1.98 0.66 3.96 1.32 6 2 C5.01 3.32 4.02 4.64 3 6 C2.01 5.67 1.02 5.34 0 5 C0 3.35 0 1.7 0 0 Z " fill="#0B0B0B" transform="translate(25,56)"/>
<path d="M0 0 C2 3 2 3 1.625 5.6875 C1.41875 6.450625 1.2125 7.21375 1 8 C-0.32 8.33 -1.64 8.66 -3 9 C-2.01 6.03 -1.02 3.06 0 0 Z " fill="#6B6B6B" transform="translate(33,28)"/>
<path d="M0 0 C1.98 0 3.96 0 6 0 C3.03716687 2.38672669 0.05729491 4.7353371 -3 7 C-1.125 2.25 -1.125 2.25 0 0 Z " fill="#282828" transform="translate(238,14)"/>
<path d="M0 0 C2.64 0 5.28 0 8 0 C7 2 7 2 5.15234375 2.6328125 C4.42144531 2.79523438 3.69054687 2.95765625 2.9375 3.125 C1.83728516 3.37636719 1.83728516 3.37636719 0.71484375 3.6328125 C0.14894531 3.75398437 -0.41695313 3.87515625 -1 4 C-0.67 2.68 -0.34 1.36 0 0 Z " fill="#E3E3E3" transform="translate(67,224)"/>
<path d="M0 0 C0.66 1.32 1.32 2.64 2 4 C1 7 1 7 -3 11 C-2.01 7.37 -1.02 3.74 0 0 Z " fill="#BABABA" transform="translate(141,149)"/>
<path d="M0 0 C0.33 0.66 0.66 1.32 1 2 C3.02463255 2.65213292 3.02463255 2.65213292 5 3 C4.34 3.66 3.68 4.32 3 5 C0.9375 4.8125 0.9375 4.8125 -1 4 C-1.33 3.01 -1.66 2.02 -2 1 C-1.34 0.67 -0.68 0.34 0 0 Z " fill="#111111" transform="translate(27,270)"/>
<path d="M0 0 C0.33 0.99 0.66 1.98 1 3 C0.34 3.99 -0.32 4.98 -1 6 C-0.67 4.02 -0.34 2.04 0 0 Z " fill="#CBCBCB" transform="translate(163,75)"/>
<path d="" fill="#E1E1E1" transform="translate(0,0)"/>
<path d="" fill="#D2D2D2" transform="translate(0,0)"/>
<path d="" fill="#CBCBCB" transform="translate(0,0)"/>
<path d="" fill="#D3D3D3" transform="translate(0,0)"/>
<path d="" fill="#CFCFCF" transform="translate(0,0)"/>
<path d="" fill="#F8F8F8" transform="translate(0,0)"/>
<path d="" fill="#E7E7E7" transform="translate(0,0)"/>
<path d="" fill="#DEDEDE" transform="translate(0,0)"/>
<path d="" fill="#C4C4C4" transform="translate(0,0)"/>
<path d="" fill="#E2E2E2" transform="translate(0,0)"/>
<path d="" fill="#DCDCDC" transform="translate(0,0)"/>
<path d="" fill="#C6C6C6" transform="translate(0,0)"/>
<path d="" fill="#FFFFFF" transform="translate(0,0)"/>
<path d="" fill="#DEDEDE" transform="translate(0,0)"/>
<path d="" fill="#FEFDFE" transform="translate(0,0)"/>
<path d="" fill="#D7D7D7" transform="translate(0,0)"/>
<path d="" fill="#FEFEFE" transform="translate(0,0)"/>
<path d="" fill="#E9E9E9" transform="translate(0,0)"/>
<path d="" fill="#FBFBFB" transform="translate(0,0)"/>
<path d="" fill="#EBEBEB" transform="translate(0,0)"/>
<path d="" fill="#FEFEFE" transform="translate(0,0)"/>
<path d="" fill="#F8F8F8" transform="translate(0,0)"/>
<path d="" fill="#E5E5E5" transform="translate(0,0)"/>
<path d="" fill="#BBBBBB" transform="translate(0,0)"/>
<path d="" fill="#B7B7B7" transform="translate(0,0)"/>
<path d="" fill="#C3C3C3" transform="translate(0,0)"/>
<path d="" fill="#FEFEFE" transform="translate(0,0)"/>
<path d="" fill="#FCFCFC" transform="translate(0,0)"/>
<path d="" fill="#C2C2C2" transform="translate(0,0)"/>
<path d="" fill="#BEBEBE" transform="translate(0,0)"/>
<path d="" fill="#FEFEFE" transform="translate(0,0)"/>
<path d="" fill="#7F7F7F" transform="translate(0,0)"/>
<path d="" fill="#000000" transform="translate(0,0)"/>
<path d="" fill="#FCFBFC" transform="translate(0,0)"/>
<path d="" fill="#FFFFFF" transform="translate(0,0)"/>
<path d="" fill="#FFFFFF" transform="translate(0,0)"/>
<path d="" fill="#FFFFFF" transform="translate(0,0)"/>
</svg>
